<?xml version="1.0" standalone="no"?>
<!DOCTYPE svg PUBLIC "-//W3C//DTD SVG 20010904//EN"
 "http://www.w3.org/TR/2001/REC-SVG-20010904/DTD/svg10.dtd">
<svg version="1.0" xmlns="http://www.w3.org/2000/svg"
 width="700.000000pt" height="525.000000pt" viewBox="0 0 700.000000 525.000000"
 preserveAspectRatio="xMidYMid meet">

<g transform="translate(0.000000,525.000000) scale(0.100000,-0.100000)"
fill="#000000" stroke="none">
<path d="M0 2625 l0 -2625 3500 0 3500 0 0 2625 0 2625 -3500 0 -3500 0 0
-2625z m2600 1569 c371 -56 669 -252 791 -520 72 -159 95 -259 105 -462 12
-263 -35 -522 -144 -792 -63 -154 -109 -248 -166 -335 -189 -289 -393 -483
-631 -600 -198 -97 -286 -121 -475 -132 -205 -11 -381 28 -586 129 -185 92
-314 208 -314 282 0 65 35 71 141 22 104 -47 230 -89 239 -79 4 4 12 52 19
106 14 123 88 450 147 655 131 456 162 557 234 777 92 281 181 521 212 576 26
48 44 53 151 47 91 -5 163 -31 210 -75 34 -33 35 -65 3 -141 -13 -31 -52 -136
-86 -232 -35 -96 -91 -251 -125 -345 -92 -249 -258 -758 -304 -925 -21 -80
-50 -183 -64 -230 -27 -92 -53 -257 -43 -267 10 -10 96 -3 158 13 280 72 542
300 742 647 31 54 67 124 80 155 13 31 43 102 66 157 47 115 112 358 130 490
8 57 11 161 8 275 -4 169 -7 192 -32 264 -36 104 -67 156 -127 210 -63 56
-130 82 -252 95 -387 43 -817 -39 -1141 -219 -256 -142 -447 -347 -507 -543
-30 -97 -55 -115 -117 -83 -139 73 -239 398 -171 556 34 80 184 189 430 315
70 35 153 74 185 86 115 41 333 98 445 114 227 34 596 38 789 9z m3288 -889
c91 -79 129 -240 80 -342 l-24 -51 156 -3 c176 -4 190 -9 190 -66 0 -50 -53
-154 -109 -215 l-49 -53 -182 -3 -182 -4 -24 -56 c-101 -234 -171 -375 -191
-384 -33 -16 -70 -1 -119 48 -50 49 -91 132 -101 199 -4 36 0 56 26 110 17 37
31 71 31 76 0 5 -69 9 -152 9 -84 0 -159 4 -167 9 -7 5 -16 31 -18 57 -4 44
-1 55 35 109 21 34 58 77 82 97 64 55 113 68 260 68 l126 0 83 173 c122 254
124 257 170 257 28 0 47 -8 79 -35z"/>
</g>
</svg>
