<svg xmlns="http://www.w3.org/2000/svg" width="700" height="525" viewBox="0 0 700 525" version="1.1"><path d="M 191 105.521 C 175.500 107.423, 158.007 111.342, 143.500 116.164 C 131.750 120.069, 108.447 131.042, 102.500 135.470 C 100.850 136.698, 98.072 138.439, 96.327 139.338 C 94.581 140.237, 89.684 143.763, 85.443 147.174 C 75.779 154.949, 73.024 160.103, 73.010 170.436 C 72.991 183.626, 79.852 202.015, 87.602 209.547 C 95.667 217.386, 99.865 216.480, 102.957 206.235 C 105.172 198.896, 109.270 191.110, 115.500 182.402 C 124.210 170.228, 150.245 151.184, 168.261 143.809 C 203.890 129.224, 238.440 124.365, 272.848 129.101 C 286.269 130.948, 295.126 136.445, 301.310 146.765 C 308.729 159.146, 311.590 174.109, 310.689 195.823 C 309.995 212.541, 308.298 223.146, 303.460 241 C 300.448 252.115, 298.284 258.002, 289.478 279.031 C 280.248 301.072, 258.415 329.211, 239.780 343.081 C 227.060 352.548, 209.949 359.526, 197.890 360.163 L 191.500 360.500 191.186 357.248 C 190.079 345.760, 211.282 273.740, 233.066 215 C 235.207 209.225, 240.383 195.050, 244.568 183.500 C 248.753 171.950, 253.037 160.149, 254.088 157.275 C 256.584 150.454, 256.516 149.578, 253.250 146.434 C 248.259 141.630, 240.897 138.928, 231.059 138.291 L 222.074 137.709 219.287 140.717 C 217.754 142.371, 215.188 147.274, 213.585 151.612 C 211.982 155.951, 208.974 164, 206.901 169.500 C 198.856 190.846, 186.910 229.165, 170.892 285 C 166.116 301.650, 158.657 336.964, 157.508 348.366 L 156.816 355.232 153.347 354.669 C 151.439 354.359, 143.578 351.561, 135.880 348.451 C 122.421 343.015, 121.807 342.865, 119.941 344.553 C 115.588 348.493, 119.389 355.675, 130.699 364.879 C 139.901 372.367, 157.483 381.248, 170.713 385.092 C 204.624 394.942, 241.338 388.090, 272.208 366.151 C 286.104 356.275, 295.713 346.979, 306.351 333.122 C 311.834 325.980, 325 306.555, 325 305.607 C 325 305.371, 326.542 301.876, 328.426 297.839 C 342.519 267.651, 349 240.665, 349 212.170 C 349 188.135, 346.666 175.295, 339.400 159.350 C 326.838 131.784, 300.469 113.568, 262.610 106.301 C 251.137 104.098, 206.550 103.613, 191 105.521 M 576.867 192.658 C 575.981 193.671, 570.932 203.387, 565.646 214.250 C 560.361 225.113, 555.690 234.022, 555.268 234.049 C 554.846 234.076, 548.425 234.188, 541 234.299 C 529.007 234.478, 527.013 234.760, 523.137 236.828 C 513.248 242.105, 504.212 255.284, 505.560 262.466 C 506.501 267.483, 509.101 268.336, 521.500 267.692 C 527 267.407, 533.419 267.472, 535.764 267.837 L 540.027 268.500 538.125 272.038 C 537.079 273.984, 535.492 277.729, 534.599 280.360 C 533.157 284.608, 533.134 285.751, 534.393 290.572 C 537.300 301.705, 545.942 312, 552.380 312 C 554.237 312, 556.187 311.438, 556.716 310.750 C 558.061 309, 575 272.354, 575 271.194 C 575 268.285, 578.470 267.639, 595.013 267.468 L 611.889 267.294 615.260 264.397 C 622.560 258.122, 628 247.940, 628 240.551 C 628 234.995, 628.360 235.108, 609.207 234.615 C 601.346 234.413, 594.723 234.057, 594.491 233.824 C 594.259 233.592, 595.178 231.210, 596.534 228.531 C 599.414 222.844, 599.664 217.598, 597.416 210.028 C 594.524 200.291, 587.916 192.347, 581.894 191.370 C 579.339 190.956, 578.071 191.280, 576.867 192.658" stroke="none" fill="#faf2f7" fill-rule="evenodd"/><path d="M 195.500 47.648 C 169.496 49.711, 136.614 57.032, 114.782 65.621 C 83.734 77.835, 48.393 100.654, 33.170 118.316 C 21.847 131.454, 15.641 149.513, 15.742 169.031 C 15.900 199.599, 28.428 230.756, 48.500 250.500 C 64.260 266.002, 79.404 271.678, 102.620 270.784 C 109.415 270.522, 115.142 270.476, 115.348 270.681 C 115.553 270.886, 114.770 274.477, 113.607 278.661 L 111.494 286.269 104.951 288.389 C 95.312 291.512, 87.768 296.514, 79.144 305.500 C 62.351 322.996, 57.117 345.439, 64.430 368.588 C 68.612 381.828, 81.180 398.398, 95.081 409.001 C 110.792 420.984, 119.617 426.025, 137.620 433.297 C 191.330 454.993, 251.192 448.231, 301.214 414.818 C 328.843 396.362, 353.628 369.003, 372.254 336.399 C 377.180 327.777, 386.213 309.160, 387.489 305 C 387.911 303.625, 389.076 300.876, 390.077 298.891 C 394.466 290.188, 402.703 257.146, 404.897 239.444 C 407.769 216.269, 407.032 189.054, 403.004 169.552 C 400.586 157.846, 394.877 140.675, 389.953 130.295 C 380.331 110.012, 360.476 88.671, 337.402 73.812 C 325.641 66.238, 303.751 57.013, 288 52.993 C 269.210 48.198, 264.804 47.766, 232 47.503 C 214.675 47.365, 198.250 47.430, 195.500 47.648 M 191 105.521 C 175.500 107.423, 158.007 111.342, 143.500 116.164 C 131.750 120.069, 108.447 131.042, 102.500 135.470 C 100.850 136.698, 98.072 138.439, 96.327 139.338 C 94.581 140.237, 89.684 143.763, 85.443 147.174 C 75.779 154.949, 73.024 160.103, 73.010 170.436 C 72.991 183.626, 79.852 202.015, 87.602 209.547 C 95.667 217.386, 99.865 216.480, 102.957 206.235 C 105.172 198.896, 109.270 191.110, 115.500 182.402 C 124.210 170.228, 150.245 151.184, 168.261 143.809 C 203.890 129.224, 238.440 124.365, 272.848 129.101 C 286.269 130.948, 295.126 136.445, 301.310 146.765 C 308.729 159.146, 311.590 174.109, 310.689 195.823 C 309.995 212.541, 308.298 223.146, 303.460 241 C 300.448 252.115, 298.284 258.002, 289.478 279.031 C 280.248 301.072, 258.415 329.211, 239.780 343.081 C 227.060 352.548, 209.949 359.526, 197.890 360.163 L 191.500 360.500 191.186 357.248 C 190.079 345.760, 211.282 273.740, 233.066 215 C 235.207 209.225, 240.383 195.050, 244.568 183.500 C 248.753 171.950, 253.037 160.149, 254.088 157.275 C 256.584 150.454, 256.516 149.578, 253.250 146.434 C 248.259 141.630, 240.897 138.928, 231.059 138.291 L 222.074 137.709 219.287 140.717 C 217.754 142.371, 215.188 147.274, 213.585 151.612 C 211.982 155.951, 208.974 164, 206.901 169.500 C 198.856 190.846, 186.910 229.165, 170.892 285 C 166.116 301.650, 158.657 336.964, 157.508 348.366 L 156.816 355.232 153.347 354.669 C 151.439 354.359, 143.578 351.561, 135.880 348.451 C 122.421 343.015, 121.807 342.865, 119.941 344.553 C 115.588 348.493, 119.389 355.675, 130.699 364.879 C 139.901 372.367, 157.483 381.248, 170.713 385.092 C 204.624 394.942, 241.338 388.090, 272.208 366.151 C 286.104 356.275, 295.713 346.979, 306.351 333.122 C 311.834 325.980, 325 306.555, 325 305.607 C 325 305.371, 326.542 301.876, 328.426 297.839 C 342.519 267.651, 349 240.665, 349 212.170 C 349 188.135, 346.666 175.295, 339.400 159.350 C 326.838 131.784, 300.469 113.568, 262.610 106.301 C 251.137 104.098, 206.550 103.613, 191 105.521 M 570 134.627 C 557.707 136.956, 545.569 143.400, 535.815 152.776 C 530.666 157.726, 528.034 161.367, 524.359 168.625 L 519.588 178.047 513.544 179.914 C 493.883 185.986, 476.958 197.859, 464.773 214.124 C 460.738 219.510, 453.687 232.887, 451.581 239.151 C 443.757 262.422, 449.976 289.281, 467.237 306.763 C 470.682 310.252, 475.768 314.412, 478.539 316.006 C 481.930 317.957, 484.358 320.312, 485.960 323.203 C 496.392 342.030, 506.950 352.752, 523.649 361.480 C 533.875 366.824, 542.128 368.914, 553.201 368.965 C 563.809 369.013, 570.080 367.536, 579.928 362.667 C 591.419 356.985, 599.787 348.697, 607.572 335.287 C 613.918 324.354, 613.713 324.538, 622 322.385 C 640.504 317.579, 654.844 308.122, 665.803 293.500 C 672.204 284.959, 679.421 271.703, 681.892 263.950 C 683.681 258.336, 685.997 243.977, 685.998 238.500 C 685.998 232.272, 683.451 219.806, 681.093 214.500 C 675.813 202.616, 664.890 190.719, 654.662 185.711 C 649.790 183.325, 648.836 182.276, 644.486 174.526 C 641.846 169.823, 636.547 162.493, 632.710 158.237 C 618.786 142.795, 602.627 135.070, 583 134.473 C 577.225 134.297, 571.375 134.367, 570 134.627 M 576.867 192.658 C 575.981 193.671, 570.932 203.387, 565.646 214.250 C 560.361 225.113, 555.690 234.022, 555.268 234.049 C 554.846 234.076, 548.425 234.188, 541 234.299 C 529.007 234.478, 527.013 234.760, 523.137 236.828 C 513.248 242.105, 504.212 255.284, 505.560 262.466 C 506.501 267.483, 509.101 268.336, 521.500 267.692 C 527 267.407, 533.419 267.472, 535.764 267.837 L 540.027 268.500 538.125 272.038 C 537.079 273.984, 535.492 277.729, 534.599 280.360 C 533.157 284.608, 533.134 285.751, 534.393 290.572 C 537.300 301.705, 545.942 312, 552.380 312 C 554.237 312, 556.187 311.438, 556.716 310.750 C 558.061 309, 575 272.354, 575 271.194 C 575 268.285, 578.470 267.639, 595.013 267.468 L 611.889 267.294 615.260 264.397 C 622.560 258.122, 628 247.940, 628 240.551 C 628 234.995, 628.360 235.108, 609.207 234.615 C 601.346 234.413, 594.723 234.057, 594.491 233.824 C 594.259 233.592, 595.178 231.210, 596.534 228.531 C 599.414 222.844, 599.664 217.598, 597.416 210.028 C 594.524 200.291, 587.916 192.347, 581.894 191.370 C 579.339 190.956, 578.071 191.280, 576.867 192.658" stroke="none" fill="#e80e6d" fill-rule="evenodd"/></svg>