<?xml version="1.0" encoding="UTF-8"?>
<svg xmlns="http://www.w3.org/2000/svg" xmlns:xlink="http://www.w3.org/1999/xlink" width="500px" height="375px" viewBox="0 0 500 375" version="1.1">
<g id="surface1">
<path style=" stroke:none;fill-rule:evenodd;fill:rgb(98.039216%,94.901961%,96.862745%);fill-opacity:1;" d="M 136.429688 75.371094 C 125.355469 76.730469 112.863281 79.53125 102.5 82.972656 C 94.105469 85.761719 77.460938 93.601562 73.214844 96.765625 C 72.035156 97.640625 70.050781 98.886719 68.804688 99.527344 C 67.558594 100.167969 64.058594 102.6875 61.03125 105.125 C 54.128906 110.679688 52.160156 114.359375 52.148438 121.738281 C 52.136719 131.160156 57.039062 144.296875 62.574219 149.675781 C 68.332031 155.277344 71.332031 154.628906 73.539062 147.3125 C 75.121094 142.070312 78.050781 136.507812 82.5 130.289062 C 88.722656 121.589844 107.316406 107.988281 120.1875 102.722656 C 145.636719 92.304688 170.3125 88.832031 194.890625 92.214844 C 204.476562 93.535156 210.804688 97.460938 215.222656 104.832031 C 220.519531 113.675781 222.5625 124.363281 221.921875 139.875 C 221.425781 151.816406 220.210938 159.390625 216.757812 172.144531 C 214.605469 180.082031 213.058594 184.289062 206.769531 199.308594 C 200.175781 215.050781 184.582031 235.152344 171.269531 245.058594 C 162.1875 251.820312 149.964844 256.804688 141.351562 257.257812 L 136.785156 257.5 L 136.5625 255.175781 C 135.769531 246.972656 150.914062 195.527344 166.476562 153.570312 C 168.003906 149.445312 171.703125 139.320312 174.691406 131.070312 C 177.679688 122.820312 180.742188 114.390625 181.492188 112.339844 C 183.273438 107.46875 183.226562 106.839844 180.894531 104.597656 C 177.328125 101.164062 172.070312 99.234375 165.042969 98.777344 L 158.625 98.363281 L 156.632812 100.511719 C 155.539062 101.695312 153.707031 105.195312 152.5625 108.292969 C 151.414062 111.394531 149.265625 117.144531 147.785156 121.070312 C 142.039062 136.320312 133.507812 163.6875 122.066406 203.570312 C 118.652344 215.464844 113.328125 240.6875 112.503906 248.832031 L 112.011719 253.738281 L 109.535156 253.335938 C 108.171875 253.113281 102.554688 251.113281 97.058594 248.894531 C 87.445312 245.011719 87.003906 244.902344 85.671875 246.109375 C 82.5625 248.921875 85.277344 254.054688 93.355469 260.628906 C 99.929688 265.976562 112.488281 272.320312 121.9375 275.066406 C 146.160156 282.101562 172.382812 277.207031 194.433594 261.535156 C 204.359375 254.480469 211.222656 247.84375 218.820312 237.945312 C 222.738281 232.84375 232.144531 218.96875 232.144531 218.289062 C 232.144531 218.121094 233.246094 215.625 234.589844 212.742188 C 244.65625 191.179688 249.285156 171.902344 249.285156 151.550781 C 249.285156 134.382812 247.617188 125.210938 242.429688 113.820312 C 233.457031 94.132812 214.621094 81.121094 187.578125 75.929688 C 179.382812 74.355469 147.535156 74.007812 136.429688 75.371094 M 412.046875 137.613281 C 411.414062 138.335938 407.808594 145.277344 404.03125 153.035156 C 400.257812 160.796875 396.921875 167.160156 396.621094 167.179688 C 396.320312 167.195312 391.730469 167.277344 386.429688 167.355469 C 377.863281 167.484375 376.4375 167.6875 373.667969 169.164062 C 366.605469 172.933594 360.152344 182.347656 361.113281 187.476562 C 361.785156 191.058594 363.644531 191.667969 372.5 191.207031 C 376.429688 191.003906 381.011719 191.050781 382.6875 191.3125 L 385.734375 191.785156 L 384.375 194.3125 C 383.628906 195.703125 382.496094 198.378906 381.855469 200.257812 C 380.828125 203.292969 380.808594 204.109375 381.710938 207.550781 C 383.785156 215.503906 389.957031 222.855469 394.558594 222.855469 C 395.882812 222.855469 397.277344 222.457031 397.652344 221.964844 C 398.613281 220.714844 410.714844 194.539062 410.714844 193.710938 C 410.714844 191.632812 413.191406 191.171875 425.007812 191.046875 L 437.0625 190.925781 L 439.472656 188.855469 C 444.6875 184.371094 448.570312 177.101562 448.570312 171.820312 C 448.570312 167.855469 448.828125 167.933594 435.148438 167.582031 C 429.53125 167.4375 424.800781 167.183594 424.636719 167.015625 C 424.472656 166.851562 425.128906 165.148438 426.097656 163.238281 C 428.152344 159.175781 428.332031 155.425781 426.726562 150.019531 C 424.660156 143.066406 419.941406 137.390625 415.636719 136.691406 C 413.8125 136.398438 412.90625 136.628906 412.046875 137.613281 "/>
<path style=" stroke:none;fill-rule:evenodd;fill:rgb(90.980393%,5.490196%,42.745098%);fill-opacity:1;" d="M 139.644531 34.035156 C 121.070312 35.507812 97.582031 40.738281 81.988281 46.871094 C 59.808594 55.597656 34.566406 71.894531 23.691406 84.511719 C 15.605469 93.894531 11.171875 106.796875 11.246094 120.738281 C 11.355469 142.570312 20.304688 164.824219 34.644531 178.929688 C 45.898438 190 56.71875 194.054688 73.300781 193.417969 C 78.152344 193.230469 82.246094 193.195312 82.390625 193.34375 C 82.539062 193.488281 81.980469 196.054688 81.148438 199.042969 L 79.636719 204.476562 L 74.964844 205.992188 C 68.078125 208.222656 62.691406 211.796875 56.53125 218.214844 C 44.535156 230.710938 40.796875 246.742188 46.019531 263.277344 C 49.007812 272.734375 57.984375 284.570312 67.914062 292.144531 C 79.136719 300.703125 85.441406 304.304688 98.300781 309.496094 C 136.664062 324.996094 179.421875 320.164062 215.152344 296.296875 C 234.886719 283.117188 252.589844 263.574219 265.894531 240.285156 C 269.414062 234.125 275.867188 220.828125 276.777344 217.855469 C 277.078125 216.875 277.910156 214.910156 278.625 213.492188 C 281.761719 207.277344 287.644531 183.675781 289.210938 171.03125 C 291.261719 154.476562 290.738281 135.039062 287.859375 121.109375 C 286.132812 112.746094 282.054688 100.480469 278.539062 93.066406 C 271.664062 78.578125 257.484375 63.335938 241 52.722656 C 232.601562 47.3125 216.964844 40.722656 205.714844 37.851562 C 192.292969 34.425781 189.144531 34.117188 165.714844 33.929688 C 153.339844 33.832031 141.605469 33.878906 139.644531 34.035156 M 136.429688 75.371094 C 125.355469 76.730469 112.863281 79.53125 102.5 82.972656 C 94.105469 85.761719 77.460938 93.601562 73.214844 96.765625 C 72.035156 97.640625 70.050781 98.886719 68.804688 99.527344 C 67.558594 100.167969 64.058594 102.6875 61.03125 105.125 C 54.128906 110.679688 52.160156 114.359375 52.148438 121.738281 C 52.136719 131.160156 57.039062 144.296875 62.574219 149.675781 C 68.332031 155.277344 71.332031 154.628906 73.539062 147.3125 C 75.121094 142.070312 78.050781 136.507812 82.5 130.289062 C 88.722656 121.589844 107.316406 107.988281 120.1875 102.722656 C 145.636719 92.304688 170.3125 88.832031 194.890625 92.214844 C 204.476562 93.535156 210.804688 97.460938 215.222656 104.832031 C 220.519531 113.675781 222.5625 124.363281 221.921875 139.875 C 221.425781 151.816406 220.210938 159.390625 216.757812 172.144531 C 214.605469 180.082031 213.058594 184.289062 206.769531 199.308594 C 200.175781 215.050781 184.582031 235.152344 171.269531 245.058594 C 162.1875 251.820312 149.964844 256.804688 141.351562 257.257812 L 136.785156 257.5 L 136.5625 255.175781 C 135.769531 246.972656 150.914062 195.527344 166.476562 153.570312 C 168.003906 149.445312 171.703125 139.320312 174.691406 131.070312 C 177.679688 122.820312 180.742188 114.390625 181.492188 112.339844 C 183.273438 107.46875 183.226562 106.839844 180.894531 104.597656 C 177.328125 101.164062 172.070312 99.234375 165.042969 98.777344 L 158.625 98.363281 L 156.632812 100.511719 C 155.539062 101.695312 153.707031 105.195312 152.5625 108.292969 C 151.414062 111.394531 149.265625 117.144531 147.785156 121.070312 C 142.039062 136.320312 133.507812 163.6875 122.066406 203.570312 C 118.652344 215.464844 113.328125 240.6875 112.503906 248.832031 L 112.011719 253.738281 L 109.535156 253.335938 C 108.171875 253.113281 102.554688 251.113281 97.058594 248.894531 C 87.445312 245.011719 87.003906 244.902344 85.671875 246.109375 C 82.5625 248.921875 85.277344 254.054688 93.355469 260.628906 C 99.929688 265.976562 112.488281 272.320312 121.9375 275.066406 C 146.160156 282.101562 172.382812 277.207031 194.433594 261.535156 C 204.359375 254.480469 211.222656 247.84375 218.820312 237.945312 C 222.738281 232.84375 232.144531 218.96875 232.144531 218.289062 C 232.144531 218.121094 233.246094 215.625 234.589844 212.742188 C 244.65625 191.179688 249.285156 171.902344 249.285156 151.550781 C 249.285156 134.382812 247.617188 125.210938 242.429688 113.820312 C 233.457031 94.132812 214.621094 81.121094 187.578125 75.929688 C 179.382812 74.355469 147.535156 74.007812 136.429688 75.371094 M 407.144531 96.164062 C 398.363281 97.824219 389.691406 102.429688 382.726562 109.125 C 379.046875 112.660156 377.167969 115.261719 374.542969 120.445312 L 371.132812 127.175781 L 366.816406 128.511719 C 352.773438 132.847656 340.683594 141.328125 331.980469 152.945312 C 329.097656 156.792969 324.0625 166.347656 322.558594 170.820312 C 316.96875 187.445312 321.410156 206.628906 333.742188 219.117188 C 336.203125 221.609375 339.835938 224.578125 341.8125 225.71875 C 344.234375 227.113281 345.96875 228.792969 347.113281 230.859375 C 354.566406 244.308594 362.105469 251.964844 374.035156 258.199219 C 381.339844 262.015625 387.234375 263.511719 395.144531 263.546875 C 402.722656 263.582031 407.199219 262.527344 414.234375 259.046875 C 422.441406 254.988281 428.417969 249.070312 433.980469 239.492188 C 438.511719 231.679688 438.367188 231.8125 444.285156 230.273438 C 457.503906 226.84375 467.746094 220.085938 475.574219 209.644531 C 480.144531 203.542969 485.300781 194.074219 487.066406 188.535156 C 488.34375 184.527344 489.996094 174.269531 490 170.355469 C 490 165.910156 488.179688 157.003906 486.496094 153.214844 C 482.722656 144.726562 474.921875 136.226562 467.617188 132.652344 C 464.136719 130.945312 463.453125 130.195312 460.347656 124.660156 C 458.460938 121.300781 454.675781 116.066406 451.9375 113.027344 C 441.988281 101.996094 430.449219 96.480469 416.429688 96.050781 C 412.304688 95.925781 408.125 95.976562 407.144531 96.164062 M 412.046875 137.613281 C 411.414062 138.335938 407.808594 145.277344 404.03125 153.035156 C 400.257812 160.796875 396.921875 167.160156 396.621094 167.179688 C 396.320312 167.195312 391.730469 167.277344 386.429688 167.355469 C 377.863281 167.484375 376.4375 167.6875 373.667969 169.164062 C 366.605469 172.933594 360.152344 182.347656 361.113281 187.476562 C 361.785156 191.058594 363.644531 191.667969 372.5 191.207031 C 376.429688 191.003906 381.011719 191.050781 382.6875 191.3125 L 385.734375 191.785156 L 384.375 194.3125 C 383.628906 195.703125 382.496094 198.378906 381.855469 200.257812 C 380.828125 203.292969 380.808594 204.109375 381.710938 207.550781 C 383.785156 215.503906 389.957031 222.855469 394.558594 222.855469 C 395.882812 222.855469 397.277344 222.457031 397.652344 221.964844 C 398.613281 220.714844 410.714844 194.539062 410.714844 193.710938 C 410.714844 191.632812 413.191406 191.171875 425.007812 191.046875 L 437.0625 190.925781 L 439.472656 188.855469 C 444.6875 184.371094 448.570312 177.101562 448.570312 171.820312 C 448.570312 167.855469 448.828125 167.933594 435.148438 167.582031 C 429.53125 167.4375 424.800781 167.183594 424.636719 167.015625 C 424.472656 166.851562 425.128906 165.148438 426.097656 163.238281 C 428.152344 159.175781 428.332031 155.425781 426.726562 150.019531 C 424.660156 143.066406 419.941406 137.390625 415.636719 136.691406 C 413.8125 136.398438 412.90625 136.628906 412.046875 137.613281 "/>
</g>
</svg>
